PathFileType	4	(x/y/z)	S05_P20_T07
DataRate	CameraRate	NumFrames	NumMarkers	Units	OrigDataRate	OrigDataStartFrame	OrigNumFrames
240	240	9	50	mm	240	330	376
Frame#	Time	Sternum			R.Acromium			L.Acromium			Top.Head			R.ASIS			L.ASIS			R.PSIS			L.PSIS			R.Great.Tro			L.Great.Tro			R.Iliac.Crest			L.Iliac.Crest			V.Sacral			R.Thigh.Upper.Post			R.Thigh.Lower.Ant			R.Thigh.Lower.Post			R.Thigh.Upper.Ant			R.Knee.Lat			R.Knee.Med			R.Shank.Upper.Post			R.Shank.Lower.Ant			R.Shank.Lower.Post			R.Shank.Upper.Ant			R.Ankle.Lat			R.Ankle.Med			R.Heel.Upper			R.Heel.Med			R.Heel.Lat			R.Toe.Lat			R.Toe.Med			R.Toe.Tip			L.Thigh.Upper.Post			L.Thigh.Lower.Ant			L.Thigh.Lower.Post			L.Thigh.Upper.Ant			L.Knee.Lat			L.Shank.Upper.Post			L.Shank.Lower.Ant			L.Shank.Lower.Post			L.Shank.Upper.Ant			L.Ankle.Lat			L.Ankle.Med			L.Heel.Upper			L.Heel.Med			L.Heel.Lat			L.Toe.Lat			L.Toe.Med			L.Toe.Tip			Cervical.Spine			Back			
		X1	Y1	Z1	X2	Y2	Z2	X3	Y3	Z3	X4	Y4	Z4	X5	Y5	Z5	X6	Y6	Z6	X7	Y7	Z7	X8	Y8	Z8	X9	Y9	Z9	X10	Y10	Z10	X11	Y11	Z11	X12	Y12	Z12	X13	Y13	Z13	X14	Y14	Z14	X15	Y15	Z15	X16	Y16	Z16	X17	Y17	Z17	X18	Y18	Z18	X19	Y19	Z19	X20	Y20	Z20	X21	Y21	Z21	X22	Y22	Z22	X23	Y23	Z23	X24	Y24	Z24	X25	Y25	Z25	X26	Y26	Z26	X27	Y27	Z27	X28	Y28	Z28	X29	Y29	Z29	X30	Y30	Z30	X31	Y31	Z31	X32	Y32	Z32	X33	Y33	Z33	X34	Y34	Z34	X35	Y35	Z35	X36	Y36	Z36	X37	Y37	Z37	X38	Y38	Z38	X39	Y39	Z39	X40	Y40	Z40	X41	Y41	Z41	X42	Y42	Z42	X43	Y43	Z43	X44	Y44	Z44	X45	Y45	Z45	X46	Y46	Z46	X47	Y47	Z47	X48	Y48	Z48	X49	Y49	Z49	X50	Y50	Z50	

330	1.3708	459.82	1246.3	359.55	371.84	1510.8	512.12	383.89	1531.3	184.9	365.13	1812.7	334.43	375.21	1001.2	478.62	391.43	1003.1	229.96	178.71	1017.5	385.76	186.07	1025.7	294.94	300.21	919.11	540.65	295.98	931	151.97	283.65	1082.6	513.7	306.08	1083.1	180.92	169.85	985.54	350.18	417.99	715.24	542.47	484.11	660.65	486.79	430.51	627.12	523.14	466.49	747.07	505.3	455.41	537.55	501.33	470.72	522.78	366.96	479.67	288.87	497.62	563.2	257.27	510.03	513.52	220.48	487.32	528.95	326.93	518.33	605.38	152.48	499.3	611.14	180.77	413.81	578.94	69.818	433.44	608.7	51.234	407.3	597.79	48.192	471.3	736.49	122.49	544.49	771.7	158.55	433.08	803.81	208.91	484.78	251.41	699.22	162.76	314.02	613.15	193.21	242.4	605.69	183.03	329.76	700.31	171.41	227.75	511.81	192.99	112.45	332.55	194.82	162.57	259.25	202.14	92.251	264.24	215.21	178.49	327.46	188.11	85.058	121.26	226.48	123.03	131.7	314	18.117	76.988	281.8	30.931	48.754	311.53	17.779	51.181	251.72	195.96	39.507	184.97	227.17	43.397	303.33	288.53	50.431	245.38	323.26	1556.3	350.01	197.2	1286.5	337.9
331	1.375	465.16	1245	360.28	377.24	1509.5	513.07	389.73	1530.3	185.91	370.47	1811.5	335.57	380.68	1000.3	479.09	397.07	1002.1	230.39	184.14	1016.2	386.07	191.6	1024.5	295.26	305.91	918.1	541.01	301.46	930.09	152.28	288.87	1081.4	514.12	311.68	1082	181.27	175.4	984.21	350.45	424.75	714.92	542.63	491.08	660.6	486.94	437.52	626.87	523.17	473.22	746.94	505.59	462.47	537.18	501.56	477.76	522.58	367.42	485.24	288.31	497.59	568.58	256.15	509.73	518.59	219.76	487.17	534.86	326.01	518.19	609.9	151.27	498.86	615.61	179.45	413.31	582.6	69.001	433.04	612.07	50.12	406.83	601.33	47.252	470.89	740.86	120.2	543.58	776.05	155.82	432.1	808.76	205.9	483.63	256.15	698.53	163.12	318.47	612.24	193.54	246.89	605.03	183.37	334.52	699.4	171.7	231.76	511.18	193.28	114.96	332.89	195.05	164.43	259.15	202.29	94.174	264.76	215.41	180.95	327.21	188.31	85.616	121.83	226.62	123.72	131.93	314.12	18.38	77.767	281.98	31.092	49.467	311.68	17.908	51.975	251.89	196	39.497	185.02	227.32	43.31	303.36	288.66	50.152	245.37	328.78	1555.2	350.98	202.58	1285.4	338.35
332	1.3792	470.51	1243.7	361.02	382.63	1508.1	514.05	395.57	1529.4	186.95	375.82	1810.4	336.73	386.17	999.41	479.58	402.73	1001.1	230.82	189.61	1014.9	386.37	197.15	1023.2	295.57	311.64	917.12	541.39	306.97	929.17	152.6	294.12	1080.3	514.55	317.3	1080.9	181.63	180.99	982.88	350.73	431.54	714.61	542.8	498.13	660.59	487.12	444.58	626.64	523.17	480.01	746.84	505.93	469.58	536.84	501.79	484.85	522.41	367.91	490.59	287.74	497.5	573.69	254.91	509.35	523.35	218.99	486.95	540.59	325	518	614	149.93	498.34	619.7	177.98	412.73	585.76	68.122	432.57	614.88	48.894	406.3	604.32	46.236	470.41	744.75	117.64	542.59	779.99	152.72	431.04	813.35	202.49	482.38	260.97	697.84	163.5	323.04	611.33	193.87	251.48	604.34	183.7	339.35	698.49	172	235.91	510.53	193.56	117.57	333.27	195.28	166.36	259.08	202.44	96.18	265.33	215.59	183.5	326.97	188.51	86.212	122.46	226.74	124.44	132.21	314.22	18.666	78.651	282.13	31.26	50.286	311.81	18.052	52.87	252.04	196.03	39.486	185.05	227.46	43.235	303.38	288.78	49.872	245.35	334.29	1554.2	351.99	207.98	1284.4	338.81
333	1.3833	475.87	1242.5	361.79	388.03	1506.8	515.06	401.42	1528.5	188.02	381.19	1809.3	337.9	391.69	998.56	480.08	408.41	1000.1	231.27	195.12	1013.6	386.69	202.74	1022	295.9	317.4	916.15	541.78	312.5	928.26	152.94	299.4	1079.2	515	322.96	1079.9	181.99	186.61	981.58	351.02	438.34	714.31	542.97	505.21	660.61	487.31	451.67	626.43	523.15	486.83	746.76	506.32	476.7	536.5	502.01	491.99	522.27	368.4	495.74	287.15	497.37	578.55	253.57	508.91	527.83	218.18	486.68	546.16	323.92	517.76	617.74	148.49	497.76	623.44	176.38	412.08	588.45	67.204	432.03	617.2	47.579	405.72	606.81	45.171	469.88	748.21	114.84	541.52	783.53	149.3	429.91	817.6	198.73	481.04	265.89	697.14	163.9	327.73	610.43	194.19	256.2	603.64	184.05	344.29	697.6	172.31	240.21	509.88	193.84	120.28	333.68	195.49	168.37	259.03	202.57	98.276	265.94	215.76	186.15	326.75	188.7	86.852	123.16	226.85	125.19	132.55	314.29	18.981	79.65	282.26	31.44	51.225	311.92	18.215	53.875	252.16	196.07	39.476	185.08	227.61	43.171	303.39	288.91	49.591	245.32	339.8	1553.2	353.02	213.39	1283.4	339.28
334	1.3875	481.24	1241.3	362.58	393.43	1505.4	516.09	407.28	1527.7	189.1	386.56	1808.2	339.08	397.25	997.75	480.59	414.12	999.16	231.73	200.67	1012.3	387.03	208.36	1020.8	296.25	323.2	915.21	542.17	318.08	927.35	153.29	304.73	1078.2	515.46	328.63	1078.8	182.37	192.27	980.29	351.34	445.15	714	543.15	512.32	660.63	487.53	458.77	626.22	523.11	493.67	746.69	506.75	483.82	536.17	502.21	499.12	522.15	368.89	500.7	286.56	497.21	583.19	252.14	508.42	532.06	217.33	486.37	551.56	322.78	517.48	621.15	146.96	497.12	626.88	174.68	411.36	590.73	66.271	431.45	619.08	46.207	405.1	608.85	44.085	469.31	751.3	111.84	540.39	786.72	145.62	428.72	821.56	194.68	479.61	270.91	696.42	164.31	332.56	609.54	194.5	261.04	602.93	184.4	349.31	696.72	172.63	244.67	509.21	194.11	123.12	334.13	195.7	170.47	259.02	202.69	100.47	266.61	215.92	188.91	326.55	188.88	87.542	123.94	226.93	125.98	132.95	314.33	19.332	80.775	282.36	31.637	52.293	312.01	18.404	55.001	252.27	196.12	39.466	185.1	227.76	43.121	303.4	289.03	49.308	245.29	345.3	1552.2	354.08	218.82	1282.5	339.76
335	1.3917	486.62	1240.1	363.4	398.82	1504.1	517.15	413.15	1526.8	190.21	391.95	1807.1	340.27	402.85	996.98	481.12	419.86	998.23	232.2	206.26	1011.1	387.39	214.01	1019.6	296.61	329.04	914.29	542.58	323.68	926.46	153.67	310.11	1077.1	515.94	334.33	1077.8	182.77	197.96	979.04	351.68	451.94	713.68	543.33	519.43	660.65	487.76	465.85	626	523.05	500.52	746.6	507.21	490.92	535.84	502.39	506.23	522.03	369.37	505.51	285.97	497.02	587.64	250.64	507.88	536.07	216.45	486.02	556.82	321.6	517.17	624.28	145.37	496.45	630.04	172.91	410.61	592.67	65.351	430.84	620.58	44.808	404.45	610.52	43.006	468.73	754.06	108.7	539.22	789.61	141.71	427.47	825.25	190.38	478.12	276.03	695.7	164.73	337.53	608.66	194.8	266.02	602.2	184.75	354.45	695.86	172.95	249.29	508.53	194.37	126.07	334.63	195.89	172.66	259.04	202.79	102.77	267.33	216.06	191.78	326.38	189.05	88.289	124.81	226.99	126.83	133.41	314.35	19.727	82.038	282.43	31.859	53.504	312.09	18.623	56.261	252.35	196.16	39.459	185.11	227.91	43.083	303.39	289.14	49.025	245.26	350.81	1551.2	355.16	224.27	1281.5	340.26
336	1.3958	492.03	1238.9	364.23	404.22	1502.9	518.23	419.01	1526	191.34	397.36	1806.1	341.48	408.49	996.24	481.66	425.62	997.35	232.68	211.89	1009.9	387.78	219.69	1018.4	297	334.92	913.39	542.99	329.31	925.57	154.06	315.55	1076.1	516.44	340.05	1076.8	183.18	203.69	977.82	352.06	458.7	713.34	543.51	526.52	660.65	487.99	472.89	625.76	522.96	507.36	746.49	507.69	497.97	535.51	502.56	513.27	521.9	369.84	510.18	285.37	496.81	591.91	249.1	507.32	539.89	215.56	485.66	561.95	320.38	516.83	627.19	143.76	495.75	632.98	171.07	409.82	594.33	64.469	430.21	621.76	43.412	403.8	611.88	41.962	468.13	756.54	105.44	538.03	792.23	137.63	426.2	828.71	185.89	476.58	281.25	694.97	165.17	342.66	607.79	195.07	271.14	601.46	185.1	359.69	695.02	173.28	254.1	507.84	194.62	129.16	335.19	196.07	174.96	259.11	202.87	105.18	268.13	216.18	194.78	326.23	189.19	89.101	125.77	227.02	127.74	133.96	314.33	20.175	83.452	282.48	32.114	54.869	312.14	18.882	57.665	252.41	196.21	39.457	185.11	228.06	43.06	303.38	289.25	48.74	245.22	356.31	1550.2	356.27	229.74	1280.6	340.78
337	1.4	497.46	1237.8	365.08	409.61	1501.7	519.34	424.88	1525.2	192.49	402.78	1805.1	342.7	414.18	995.54	482.2	431.4	996.5	233.17	217.57	1008.7	388.2	225.4	1017.3	297.42	340.85	912.52	543.42	334.98	924.71	154.47	321.05	1075.2	516.95	345.79	1075.9	183.6	209.47	976.64	352.47	465.42	712.97	543.68	533.57	660.62	488.23	479.87	625.49	522.86	514.17	746.35	508.19	504.97	535.17	502.71	520.23	521.74	370.28	514.73	284.78	496.59	596.04	247.54	506.73	543.56	214.65	485.28	566.95	319.14	516.48	629.92	142.14	495.03	635.75	169.21	409.01	595.76	63.652	429.59	622.69	42.049	403.16	612.98	40.98	467.54	758.8	102.12	536.81	794.63	133.43	424.9	832	181.26	475.01	286.6	694.23	165.61	347.94	606.94	195.34	276.42	600.7	185.46	365.05	694.2	173.62	259.1	507.14	194.86	132.4	335.8	196.23	177.37	259.23	202.94	107.72	268.99	216.3	197.91	326.12	189.32	89.988	126.83	227.03	128.72	134.59	314.29	20.689	85.028	282.5	32.412	56.403	312.18	19.19	59.229	252.45	196.27	39.463	185.1	228.23	43.051	303.35	289.36	48.453	245.17	361.8	1549.3	357.41	235.23	1279.7	341.32
338	1.4042	502.93	1236.8	365.94	415.01	1500.5	520.47	430.73	1524.5	193.66	408.21	1804.2	343.93	419.91	994.89	482.75	437.2	995.69	233.67	223.29	1007.6	388.65	231.15	1016.2	297.87	346.82	911.69	543.86	340.68	923.87	154.9	326.62	1074.2	517.49	351.54	1074.9	184.05	215.27	975.51	352.91	472.1	712.57	543.86	540.56	660.55	488.46	486.77	625.2	522.74	520.95	746.18	508.7	511.89	534.81	502.85	527.06	521.56	370.69	519.18	284.2	496.38	600.05	245.96	506.13	547.11	213.74	484.91	571.86	317.9	516.11	632.51	140.53	494.33	638.38	167.34	408.21	597.03	62.923	428.97	623.41	40.748	402.54	613.89	40.082	466.98	760.87	98.757	535.61	796.85	129.16	423.6	835.13	176.52	473.44	292.07	693.49	166.07	353.4	606.11	195.58	281.86	599.93	185.8	370.54	693.4	173.96	264.3	506.44	195.08	135.79	336.48	196.39	179.9	259.41	202.98	110.4	269.93	216.4	201.18	326.05	189.44	90.961	128	227.02	129.79	135.31	314.22	21.281	86.779	282.5	32.765	58.118	312.2	19.557	60.964	252.47	196.33	39.479	185.08	228.4	43.057	303.32	289.46	48.165	245.12	367.3	1548.5	358.58	240.74	1278.8	341.89
